<?xml version="1.0" standalone="no"?>
<!DOCTYPE svg PUBLIC "-//W3C//DTD SVG 20010904//EN"
 "http://www.w3.org/TR/2001/REC-SVG-20010904/DTD/svg10.dtd">
<svg version="1.0" xmlns="http://www.w3.org/2000/svg"
 width="190.000000pt" height="190.000000pt" viewBox="0 0 190.000000 190.000000"
 preserveAspectRatio="xMidYMid meet">
<metadata>
Created by potrace 1.14, written by Peter Selinger 2001-2017
</metadata>
<g transform="translate(0.000000,190.000000) scale(0.100000,-0.100000)"
fill="#000000" stroke="none">
<path d="M825 1890 c-27 -5 -60 -11 -72 -14 -13 -3 -32 -8 -44 -11 -111 -24
-275 -114 -382 -211 -345 -310 -407 -838 -145 -1231 145 -218 387 -375 633
-410 141 -21 374 7 395 47 17 32 11 60 -18 90 l-29 28 -154 -4 c-134 -5 -164
-2 -234 16 -293 76 -515 299 -584 588 -29 123 -26 236 12 387 3 11 13 40 23
65 76 193 233 360 415 444 105 48 186 64 315 61 386 -8 689 -263 759 -638 18
-102 19 -272 0 -363 -19 -90 -71 -207 -111 -248 -67 -69 -172 -68 -207 2 -31
60 -39 141 -39 397 0 130 -4 187 -14 206 -26 52 -111 56 -147 7 -17 -23 -20
-45 -22 -190 -4 -219 -13 -258 -70 -326 -44 -52 -99 -76 -176 -75 -100 1 -161
41 -201 133 -17 38 -21 73 -24 225 -2 99 -9 194 -14 211 -23 69 -136 77 -171
13 -7 -13 -11 -92 -11 -212 0 -171 2 -199 22 -257 88 -265 371 -372 623 -236
36 20 71 36 77 36 7 0 35 -20 63 -44 73 -61 131 -88 204 -94 85 -7 143 16 208
83 72 73 127 194 162 349 16 77 24 293 12 341 -4 17 -10 48 -13 70 -13 103
-78 264 -147 366 -135 200 -352 346 -588 394 -47 10 -255 13 -306 5z"/>
<path d="M552 1475 c-50 -22 -68 -95 -37 -154 31 -61 143 -64 181 -6 18 28 21
94 5 123 -23 43 -95 61 -149 37z"/>
<path d="M1196 1467 c-49 -41 -53 -110 -9 -161 29 -33 65 -42 114 -27 68 21
94 121 46 177 -32 37 -111 43 -151 11z"/>
</g>
</svg>
